<svg xmlns="http://www.w3.org/2000/svg" aria-hidden="true" style="position:absolute;width:0;height:0;overflow:hidden">
  <defs>
    <symbol id="icon-eye" viewBox="0 0 32 32">
      <path stroke-linecap="round" stroke-linejoin="round" stroke-width="3.2" d="M1.334 16S6.667 5.333 16.001 5.333 30.668 16 30.668 16s-5.333 10.667-14.667 10.667C6.668 26.667 1.334 16 1.334 16z"/>
      <path stroke-linecap="round" stroke-linejoin="round" stroke-width="3.2" d="M16 20a4 4 0 1 0 0-8 4 4 0 0 0 0 8z"/>
    </symbol>
    <symbol id="icon-eye-off" viewBox="0 0 32 32">
      <path stroke-linecap="round" stroke-linejoin="round" stroke-width="3.2" d="M23.921 23.92a13.43 13.43 0 0 1-7.92 2.747C6.668 26.667 1.334 16 1.334 16a24.605 24.605 0 0 1 6.747-7.92m5.12-2.427a12.161 12.161 0 0 1 2.8-.32C25.334 5.333 30.668 16 30.668 16a24.646 24.646 0 0 1-2.88 4.253m-8.96-1.426a4.01 4.01 0 0 1-2.855 1.273 3.996 3.996 0 0 1-3.779-2.501 3.995 3.995 0 0 1 .056-3.127c.219-.491.534-.932.927-1.298M1.334 1.333l29.333 29.333"/>
    </symbol>
    <symbol id="icon-avatar" viewBox="0 0 32 32">
      <path fill="#fc832c" d="M8 0h16a8 8 0 0 1 8 8v16a8 8 0 0 1-8 8H8a8 8 0 0 1-8-8V8a8 8 0 0 1 8-8z" style="fill:var(--color1, #fc832c)"/>
      <path d="M16 9.6a3.2 3.2 0 1 1 0 6.4 3.2 3.2 0 0 1 0-6.4zm0 8c3.536 0 6.4 1.432 6.4 3.2v1.6H9.6v-1.6c0-1.768 2.864-3.2 6.4-3.2z"/>
    </symbol>
    <symbol id="icon-fav" viewBox="0 0 32 32">
      <path stroke-linecap="round" stroke-linejoin="round" stroke-width="2.462" d="M27.787 6.147a7.326 7.326 0 0 0-10.373 0L16.001 7.56l-1.413-1.413a7.333 7.333 0 0 0-10.374 0 7.333 7.333 0 0 0 0 10.374l11.787 11.787 11.787-11.787a7.345 7.345 0 0 0 2.15-5.187 7.33 7.33 0 0 0-2.15-5.187z"/>
    </symbol>
    <symbol id="icon-outline-fav" viewBox="0 0 32 32">
      <path stroke-linecap="round" stroke-linejoin="round" stroke-width="2.462" d="M27.787 6.147a7.326 7.326 0 0 0-10.373 0L16.001 7.56l-1.413-1.413a7.333 7.333 0 0 0-10.374 0 7.333 7.333 0 0 0 0 10.374l11.787 11.787 11.787-11.787a7.345 7.345 0 0 0 2.15-5.187 7.33 7.33 0 0 0-2.15-5.187z"/>
    </symbol>
  </defs>
</svg>
