<svg xmlns="http://www.w3.org/2000/svg" aria-hidden="true" style="position:absolute;width:0;height:0;overflow:hidden">
  <defs>
    <symbol id="icon-eye" viewBox="0 0 32 32">
      <path stroke-linecap="round" stroke-linejoin="round" stroke-width="3.2" d="M1.334 16S6.667 5.333 16.001 5.333 30.668 16 30.668 16s-5.333 10.667-14.667 10.667C6.668 26.667 1.334 16 1.334 16z"/>
      <path stroke-linecap="round" stroke-linejoin="round" stroke-width="3.2" d="M16 20a4 4 0 1 0 0-8 4 4 0 0 0 0 8z"/>
    </symbol>
    <symbol id="icon-eye-off" viewBox="0 0 32 32">
      <path stroke-linecap="round" stroke-linejoin="round" stroke-width="3.2" d="M23.921 23.92a13.43 13.43 0 0 1-7.92 2.747C6.668 26.667 1.334 16 1.334 16a24.605 24.605 0 0 1 6.747-7.92m5.12-2.427a12.161 12.161 0 0 1 2.8-.32C25.334 5.333 30.668 16 30.668 16a24.646 24.646 0 0 1-2.88 4.253m-8.96-1.426a4.01 4.01 0 0 1-2.855 1.273 3.996 3.996 0 0 1-3.779-2.501 3.995 3.995 0 0 1 .056-3.127c.219-.491.534-.932.927-1.298M1.334 1.333l29.333 29.333"/>
    </symbol>
    <symbol id="icon-avatar" viewBox="0 0 24 24">
      <path d="M12 4C13.0609 4 14.0783 4.42143 14.8284 5.17157C15.5786 5.92172 16 6.93913 16 8C16 9.06087 15.5786 10.0783 14.8284 10.8284C14.0783 11.5786 13.0609 12 12 12C10.9391 12 9.92172 11.5786 9.17157 10.8284C8.42143 10.0783 8 9.06087 8 8C8 6.93913 8.42143 5.92172 9.17157 5.17157C9.92172 4.42143 10.9391 4 12 4ZM12 14C16.42 14 20 15.79 20 18V20H4V18C4 15.79 7.58 14 12 14Z" />
    </symbol>
    <symbol id="icon-fav" viewBox="0 0 32 32">
      <path stroke-linecap="round" stroke-linejoin="round" stroke-width="2.462" d="M27.787 6.147a7.326 7.326 0 0 0-10.373 0L16.001 7.56l-1.413-1.413a7.333 7.333 0 0 0-10.374 0 7.333 7.333 0 0 0 0 10.374l11.787 11.787 11.787-11.787a7.345 7.345 0 0 0 2.15-5.187 7.33 7.33 0 0 0-2.15-5.187z"/>
    </symbol>
    <symbol id="icon-outline-fav" viewBox="0 0 32 32">
      <path stroke-linecap="round" stroke-linejoin="round" stroke-width="2.462" d="M27.787 6.147a7.326 7.326 0 0 0-10.373 0L16.001 7.56l-1.413-1.413a7.333 7.333 0 0 0-10.374 0 7.333 7.333 0 0 0 0 10.374l11.787 11.787 11.787-11.787a7.345 7.345 0 0 0 2.15-5.187 7.33 7.33 0 0 0-2.15-5.187z"/>
    </symbol>
    <symbol id="icon-arrow" viewBox="0 0 15 17">
      <path d="M12.8229 1.6731C12.7461 1.12619 12.2404 0.745143 11.6935 0.822006L2.78109 2.07456C2.23418 2.15143 1.85313 2.6571 1.92999 3.20401C2.00685 3.75092 2.51252 4.13196 3.05943 4.0551L10.9816 2.94172L12.095 10.8639C12.1718 11.4108 12.6775 11.7918 13.2244 11.715C13.7713 11.6381 14.1524 11.1324 14.0755 10.5855L12.8229 1.6731ZM1.79864 16.7895L12.6313 2.41409L11.034 1.21046L0.201365 15.5859L1.79864 16.7895Z" />
    </symbol>
    <symbol id="icon-check" viewBox="0 0 30 30">
      <path d="M8 13.333l-2.667 2.667 8 8 13.333-13.333-2.667-2.667-10.667 10.667-5.333-5.333z" />
    </symbol>
    <symbol id="icon-avatars" viewBox="0 0 35 32">
      <path d="M24.989 25.787l-0.926 3.447-24.063-6.463 0.905-3.447c0 0 1.853-6.872 13.895-3.641s10.19 10.103 10.19 10.103zM23.352 7.842c0.323-1.206 0.28-2.456-0.129-3.619-0.388-1.163-1.12-2.197-2.111-2.951-0.969-0.754-2.154-1.185-3.382-1.271s-2.456 0.215-3.511 0.819c-1.077 0.625-1.939 1.551-2.477 2.65s-0.754 2.348-0.582 3.576c0.151 1.206 0.668 2.348 1.486 3.274 0.819 0.948 1.874 1.594 3.059 1.917 1.616 0.431 3.318 0.215 4.739-0.625 1.422-0.819 2.477-2.176 2.908-3.77zM26.734 18.871c0.84 1.099 1.422 2.37 1.702 3.727 0.302 1.357 0.302 2.757 0 4.115l-0.926 3.425 6.872 1.853 0.926-3.447c0 0 1.68-6.247-8.574-9.673zM29.255 2.973c-1.185-0.323-2.434-0.28-3.598 0.129 0.668 1.723 0.754 3.619 0.28 5.429-0.495 1.788-1.508 3.382-2.951 4.567 0.797 0.926 1.853 1.594 3.038 1.917 1.616 0.409 3.318 0.194 4.739-0.625 1.422-0.84 2.477-2.197 2.908-3.791s0.194-3.296-0.625-4.739c-0.84-1.422-2.197-2.456-3.791-2.887z"></path>
    </symbol>
    <symbol id="icon-question" viewBox="0 0 19 32">
      <path d="M4.303 9.143c0-2.538 1.915-4.582 4.303-4.582h2.151c2.366 0 4.303 2.044 4.303 4.582v0.237c0 1.57-0.753 3.012-1.979 3.851l-2.84 1.936c-0.839 0.581-1.527 1.355-2.001 2.28s-0.71 1.958-0.71 3.012v0.108c0 1.269 0.947 2.28 2.151 2.28 1.183 0 2.151-1.011 2.151-2.28v-0.108c0-0.581 0.28-1.119 0.731-1.441l2.84-1.936c2.452-1.678 3.958-4.582 3.958-7.701v-0.237c0-5.055-3.872-9.143-8.605-9.143h-2.151c-4.754 0-8.605 4.087-8.605 9.143 0 1.248 0.947 2.28 2.151 2.28 1.183 0 2.151-1.033 2.151-2.28zM9.681 31.989c0.71 0 1.377-0.301 1.893-0.839 0.495-0.538 0.796-1.269 0.796-2.022s-0.301-1.484-0.796-2.022c-0.516-0.538-1.183-0.839-1.893-0.839-0.731 0-1.398 0.301-1.915 0.839-0.495 0.538-0.774 1.269-0.774 2.022s0.28 1.484 0.774 2.022c0.516 0.538 1.183 0.839 1.915 0.839z"></path>
    </symbol>
    <symbol id="icon-star" viewBox="0 0 16 15">
      <path d="M6.20021 4.69703L8 1.28579L9.79979 4.69703C9.95896 4.9987 10.2491 5.20947 10.5851 5.26762L14.3856 5.92519L11.6975 8.69103C11.4598 8.93563 11.3489 9.27666 11.3975 9.61427L11.9465 13.4319L8.48537 11.7301C8.17929 11.5795 7.82071 11.5795 7.51463 11.7301L4.05348 13.4319L4.6025 9.61427C4.65105 9.27666 4.54024 8.93563 4.30252 8.69103L1.6144 5.92519L5.41486 5.26762C5.75095 5.20947 6.04104 4.9987 6.20021 4.69703Z" fill="#FFC531" stroke="#FFC531" stroke-width="1.2" />
    </symbol>
    <symbol id="icon-chevron" viewBox="0 0 20 20">
      <path d="M5 12.5L10 7.5L15 12.5" stroke-width="2" stroke-linecap="round" stroke-linejoin="round" />
    </symbol>
    <svg wid="icon-cross" viewBox="0 0 32 32">
      <path stroke-width="2.5" stroke-miterlimit="4" stroke-linecap="round" stroke-linejoin="round" d="M24 8l-16 16"></path>
      <path stroke-width="2.5" stroke-miterlimit="4" stroke-linecap="round" stroke-linejoin="round" d="M8 8l16 16"></path>
    </svg>
  </defs>
</svg>
